<svg width="45" height="34" fill="none" xmlns="http://www.w3.org/2000/svg"><g clip-path="url(#clip0)"><path d="M44.686 32.924c0 .496-.355.828-.774.828v-.003c-.432.003-.78-.33-.78-.825 0-.495.348-.826.78-.826.42 0 .774.331.774.826zm.314 0c0-.68-.515-1.074-1.088-1.074-.578 0-1.093.394-1.093 1.074S43.334 34 43.912 34c.574 0 1.088-.396 1.088-1.076zm-1.269.091h.117l.27.487h.296l-.299-.507c.155-.012.282-.087.282-.3 0-.266-.178-.351-.48-.351h-.437v1.158h.251v-.487zm0-.196v-.279h.175c.095 0 .224.008.224.127 0 .13-.067.152-.179.152h-.22zm-6.061-5.818l1.358 3.81h-2.756L37.671 27zm-1.452-1.483l-3.127 8.13h2.208l.494-1.437h3.701l.468 1.437h2.397l-3.15-8.131-2.991.001zm-6.278 8.133h2.24v-8.136h-2.24v8.136zm-15.553-8.136l-1.869 6.448-1.79-6.448H8.31l2.557 8.136h3.227l2.578-8.136h-2.286zm9.056 1.772h.963c1.396 0 2.3.643 2.3 2.313 0 1.67-.904 2.314-2.3 2.314h-.963v-4.627zm-2.222-1.772v8.136h3.632c1.935 0 2.567-.33 3.25-1.07.483-.52.795-1.661.795-2.909 0-1.143-.264-2.163-.725-2.799-.83-1.136-2.025-1.358-3.809-1.358h-3.143zM0 25.504v8.147h2.26v-6.186h1.75c.58 0 .993.148 1.272.454.354.387.498 1.012.498 2.154v3.578h2.19V29.15c0-3.213-1.996-3.646-3.949-3.646H0zm17.616.011v8.136h2.24v-8.136h-2.24z" fill="#fff"/><path d="M6.02 9.315s2.882-4.362 8.635-4.813V2.919c-6.372.525-11.89 6.063-11.89 6.063s3.125 9.271 11.89 10.12V17.42c-6.432-.83-8.634-8.105-8.634-8.105zm8.635 4.76v1.54c-4.861-.89-6.21-6.075-6.21-6.075s2.333-2.653 6.21-3.083v1.69h-.007c-2.035-.251-3.624 1.7-3.624 1.7s.89 3.283 3.631 4.227zm0-14.075v2.92c.187-.016.374-.028.562-.035 7.245-.25 11.965 6.097 11.965 6.097s-5.421 6.765-11.07 6.765c-.517 0-1.002-.05-1.457-.132v1.805c.39.05.793.08 1.214.08 5.256 0 9.057-2.754 12.738-6.014.61.502 3.108 1.722 3.622 2.256-3.5 3.006-11.656 5.43-16.28 5.43-.445 0-.873-.028-1.294-.07v2.537h19.978V0H14.655zm0 6.457V4.502c.185-.013.372-.024.562-.03 5.21-.168 8.628 4.594 8.628 4.594s-3.692 5.26-7.65 5.26c-.57 0-1.08-.093-1.54-.252V8.147c2.028.252 2.436 1.171 3.656 3.257l2.711-2.347s-1.98-2.664-5.316-2.664c-.363 0-.71.026-1.05.064z" fill="#77B900"/></g><defs><clipPath id="clip0"><path fill="#fff" d="M0 0h45v34H0z"/></clipPath></defs></svg>